<svg width="772" height="141" viewBox="0 0 772 141" fill="none" xmlns="http://www.w3.org/2000/svg">
<mask id="mask0_112_2" style="mask-type:luminance" maskUnits="userSpaceOnUse" x="0" y="0" width="768" height="141">
<path d="M739.945 0H28.0548C12.5606 0 0 12.6256 0 28.2V112.8C0 128.374 12.5606 141 28.0548 141H739.945C755.439 141 768 128.374 768 112.8V28.2C768 12.6256 755.439 0 739.945 0Z" fill="white"/>
</mask>
<g mask="url(#mask0_112_2)">
<path d="M739.945 0H28.0548C12.5606 0 0 12.6256 0 28.2V112.8C0 128.374 12.5606 141 28.0548 141H739.945C755.439 141 768 128.374 768 112.8V28.2C768 12.6256 755.439 0 739.945 0Z" fill="#09090B"/>
<path d="M0 0H140.274V141H0V0Z" fill="#09090B"/>
<mask id="mask1_112_2" style="mask-type:luminance" maskUnits="userSpaceOnUse" x="0" y="0" width="144" height="141">
<path d="M143.781 0H0V141H143.781V0Z" fill="white"/>
<path d="M0 0H140.274V141H0V0Z" fill="black"/>
</mask>
<g mask="url(#mask1_112_2)">
<path d="M136.767 0V141H143.781V0H136.767Z" fill="#27272A"/>
</g>
<path fill-rule="evenodd" clip-rule="evenodd" d="M34 47V107H94V47H34ZM89.6364 51.3636H38.3636V102.636H89.6364V51.3636Z" fill="white"/>
<path d="M45 47.5268H49.3378V39.3571H101.662V91.6429H93.5289V96H106V35H45V47.5268Z" fill="white"/>
<path d="M49.3378 53.5179H45V96H87.2933V91.6429H49.3378V53.5179Z" fill="white"/>
<path d="M171.971 88.125V54.7979H183.789C186.369 54.7979 188.506 55.2695 190.2 56.2135C191.895 57.1572 193.163 58.4484 194.005 60.0864C194.847 61.7139 195.268 63.5473 195.268 65.5869C195.268 67.6373 194.841 69.4816 193.989 71.1197C193.147 72.7468 191.873 74.038 190.168 74.9926C188.473 75.9366 186.342 76.4083 183.773 76.4083H175.646V72.1448H183.32C184.95 72.1448 186.272 71.8628 187.286 71.2988C188.301 70.7235 189.046 69.9427 189.521 68.9553C189.995 67.968 190.233 66.8453 190.233 65.5869C190.233 64.3284 189.995 63.211 189.521 62.2346C189.046 61.2581 188.296 60.4932 187.27 59.9402C186.256 59.3867 184.917 59.11 183.255 59.11H176.974V88.125H171.971ZM210.906 88.6294C208.575 88.6294 206.541 88.0926 204.803 87.0185C203.065 85.9444 201.716 84.4417 200.756 82.5107C199.795 80.5797 199.315 78.323 199.315 75.7413C199.315 73.1483 199.795 70.881 200.756 68.9391C201.716 66.9972 203.065 65.4892 204.803 64.4151C206.541 63.3411 208.575 62.8042 210.906 62.8042C213.238 62.8042 215.272 63.3411 217.01 64.4151C218.747 65.4892 220.097 66.9972 221.057 68.9391C222.018 70.881 222.498 73.1483 222.498 75.7413C222.498 78.323 222.018 80.5797 221.057 82.5107C220.097 84.4417 218.747 85.9444 217.01 87.0185C215.272 88.0926 213.238 88.6294 210.906 88.6294ZM210.923 84.545C212.434 84.545 213.686 84.1435 214.679 83.3409C215.671 82.5379 216.405 81.4694 216.88 80.1349C217.366 78.8007 217.609 77.3304 217.609 75.7248C217.609 74.13 217.366 72.6654 216.88 71.3312C216.405 69.9861 215.671 68.9063 214.679 68.0928C213.686 67.2792 212.434 66.8724 210.923 66.8724C209.401 66.8724 208.138 67.2792 207.134 68.0928C206.142 68.9063 205.402 69.9861 204.916 71.3312C204.441 72.6654 204.204 74.13 204.204 75.7248C204.204 77.3304 204.441 78.8007 204.916 80.1349C205.402 81.4694 206.142 82.5379 207.134 83.3409C208.138 84.1435 209.401 84.545 210.923 84.545ZM232.535 88.125L225.218 63.1296H230.22L235.093 81.4857H235.336L240.225 63.1296H245.228L250.085 81.4042H250.328L255.168 63.1296H260.171L252.869 88.125H247.931L242.88 70.0781H242.508L237.457 88.125H232.535ZM274.725 88.6294C272.275 88.6294 270.165 88.1031 268.394 87.0509C266.635 85.9878 265.275 84.496 264.315 82.5759C263.365 80.645 262.89 78.383 262.89 75.79C262.89 73.2298 263.365 70.9731 264.315 69.0206C265.275 67.0677 266.614 65.5435 268.33 64.4476C270.057 63.352 272.075 62.8042 274.385 62.8042C275.788 62.8042 277.148 63.0372 278.464 63.5039C279.781 63.9703 280.963 64.7028 282.01 65.7007C283.057 66.6986 283.882 67.9951 284.487 69.5898C285.091 71.174 285.393 73.0997 285.393 75.367V77.0918H265.626V73.4465H280.65C280.65 72.1666 280.391 71.033 279.873 70.0456C279.355 69.0473 278.626 68.2609 277.687 67.686C276.759 67.1111 275.669 66.8234 274.417 66.8234C273.057 66.8234 271.87 67.1597 270.856 67.8326C269.852 68.4943 269.074 69.3621 268.524 70.4362C267.985 71.4993 267.715 72.6548 267.715 73.9023V76.7502C267.715 78.4207 268.006 79.842 268.589 81.0137C269.182 82.1854 270.008 83.0804 271.066 83.6987C272.124 84.3064 273.359 84.6099 274.773 84.6099C275.69 84.6099 276.527 84.4798 277.283 84.2193C278.038 83.9482 278.691 83.5467 279.242 83.0152C279.792 82.4836 280.213 81.8272 280.504 81.0461L285.086 81.8762C284.719 83.2323 284.061 84.4202 283.111 85.44C282.172 86.4489 280.99 87.2353 279.565 87.7996C278.151 88.3527 276.538 88.6294 274.725 88.6294ZM290.764 88.125V63.1296H295.443V67.1001H295.702C296.155 65.755 296.954 64.6971 298.098 63.9269C299.253 63.1458 300.559 62.7552 302.016 62.7552C302.318 62.7552 302.674 62.7661 303.084 62.7876C303.505 62.8095 303.834 62.8366 304.072 62.8691V67.5231C303.877 67.4692 303.532 67.4093 303.036 67.3444C302.539 67.2683 302.043 67.2302 301.546 67.2302C300.402 67.2302 299.382 67.4745 298.486 67.9627C297.602 68.44 296.9 69.1073 296.382 69.9642C295.864 70.8105 295.605 71.7761 295.605 72.8607V88.125H290.764ZM318.088 88.6294C315.638 88.6294 313.528 88.1031 311.758 87.0509C309.998 85.9878 308.638 84.496 307.678 82.5759C306.728 80.645 306.253 78.383 306.253 75.79C306.253 73.2298 306.728 70.9731 307.678 69.0206C308.638 67.0677 309.977 65.5435 311.693 64.4476C313.42 63.352 315.438 62.8042 317.748 62.8042C319.151 62.8042 320.511 63.0372 321.827 63.5039C323.144 63.9703 324.326 64.7028 325.373 65.7007C326.42 66.6986 327.245 67.9951 327.85 69.5898C328.454 71.174 328.756 73.0997 328.756 75.367V77.0918H308.989V73.4465H324.013C324.013 72.1666 323.754 71.033 323.236 70.0456C322.718 69.0473 321.989 68.2609 321.05 67.686C320.122 67.1111 319.032 66.8234 317.78 66.8234C316.42 66.8234 315.233 67.1597 314.218 67.8326C313.215 68.4943 312.438 69.3621 311.887 70.4362C311.347 71.4993 311.078 72.6548 311.078 73.9023V76.7502C311.078 78.4207 311.369 79.842 311.952 81.0137C312.545 82.1854 313.371 83.0804 314.429 83.6987C315.487 84.3064 316.722 84.6099 318.136 84.6099C319.054 84.6099 319.89 84.4798 320.645 84.2193C321.401 83.9482 322.054 83.5467 322.604 83.0152C323.155 82.4836 323.576 81.8272 323.867 81.0461L328.449 81.8762C328.082 83.2323 327.423 84.4202 326.474 85.44C325.535 86.4489 324.353 87.2353 322.928 87.7996C321.514 88.3527 319.901 88.6294 318.088 88.6294ZM343.436 88.6132C341.428 88.6132 339.637 88.0979 338.061 87.0671C336.496 86.0259 335.266 84.545 334.37 82.6246C333.485 80.6936 333.043 78.3773 333.043 75.6761C333.043 72.9749 333.49 70.6639 334.386 68.7438C335.293 66.8234 336.534 65.3535 338.11 64.3337C339.686 63.3139 341.472 62.8042 343.468 62.8042C345.012 62.8042 346.253 63.0644 347.192 63.5854C348.142 64.0951 348.876 64.6919 349.394 65.3754C349.922 66.0589 350.333 66.6609 350.624 67.1816H350.916V54.7979H355.756V88.125H351.028V84.2359H350.624C350.333 84.7674 349.912 85.3748 349.361 86.0583C348.822 86.7418 348.077 87.3386 347.127 87.8483C346.177 88.3584 344.947 88.6132 343.436 88.6132ZM344.505 84.4636C345.897 84.4636 347.073 84.0949 348.034 83.3571C349.005 82.6084 349.739 81.5724 350.236 80.2487C350.744 78.9255 350.997 77.3847 350.997 75.6271C350.997 73.8914 350.748 72.3725 350.252 71.0707C349.755 69.7689 349.027 68.7548 348.066 68.0279C347.106 67.3007 345.918 66.9373 344.505 66.9373C343.048 66.9373 341.833 67.3173 340.862 68.0766C339.891 68.8358 339.157 69.8722 338.66 71.1846C338.174 72.4973 337.932 73.9781 337.932 75.6271C337.932 77.298 338.18 78.8007 338.676 80.1349C339.173 81.4694 339.907 82.5269 340.878 83.3081C341.86 84.0783 343.069 84.4636 344.505 84.4636ZM375.117 88.125V54.7979H379.96V67.1816H380.251C380.532 66.6609 380.935 66.0589 381.464 65.3754C381.994 64.6919 382.727 64.0951 383.667 63.5854C384.607 63.0644 385.848 62.8042 387.391 62.8042C389.397 62.8042 391.189 63.3139 392.763 64.3337C394.342 65.3535 395.576 66.8234 396.474 68.7438C397.378 70.6639 397.831 72.9749 397.831 75.6761C397.831 78.3773 397.385 80.6936 396.488 82.6246C395.593 84.545 394.363 86.0259 392.799 87.0671C391.231 88.0979 389.446 88.6132 387.44 88.6132C385.929 88.6132 384.691 88.3584 383.73 87.8483C382.783 87.3386 382.036 86.7418 381.496 86.0583C380.956 85.3748 380.542 84.7674 380.251 84.2359H379.844V88.125H375.117ZM379.862 75.6271C379.862 77.3847 380.114 78.9255 380.623 80.2487C381.131 81.5724 381.864 82.6084 382.825 83.3571C383.786 84.0949 384.961 84.4636 386.353 84.4636C387.801 84.4636 389.008 84.0783 389.979 83.3081C390.95 82.5269 391.687 81.4694 392.181 80.1349C392.69 78.8007 392.942 77.298 392.942 75.6271C392.942 73.9781 392.693 72.4973 392.199 71.1846C391.711 69.8722 390.978 68.8358 389.997 68.0766C389.025 67.3173 387.812 66.9373 386.353 66.9373C384.95 66.9373 383.765 67.3007 382.793 68.0279C381.833 68.7548 381.103 69.7689 380.605 71.0707C380.111 72.3725 379.862 73.8914 379.862 75.6271ZM405.483 97.4983C404.757 97.4983 404.101 97.4388 403.505 97.3193C402.912 97.2107 402.47 97.0915 402.179 96.9611L403.344 92.9743C404.231 93.213 405.016 93.3163 405.707 93.2835C406.398 93.2511 407.008 92.9906 407.538 92.5023C408.078 92.0141 408.551 91.2168 408.962 90.1103L409.561 88.4504L400.464 63.1296H405.644L411.942 82.5269H412.198L418.497 63.1296H423.694L413.447 91.4611C412.973 92.7628 412.367 93.864 411.634 94.7643C410.901 95.6755 410.024 96.359 409.011 96.8148C407.997 97.2706 406.819 97.4983 405.483 97.4983ZM457.924 64.3827C457.794 63.07 457.237 62.0502 456.255 61.3234C455.273 60.5965 453.94 60.2331 452.257 60.2331C451.114 60.2331 450.146 60.3956 449.357 60.7213C448.571 61.0357 447.965 61.4749 447.544 62.0393C447.134 62.6033 446.93 63.2434 446.93 63.9594C446.909 64.5561 447.032 65.0768 447.302 65.5216C447.583 65.9665 447.965 66.3518 448.452 66.6771C448.936 66.9916 449.497 67.2683 450.136 67.5069C450.774 67.735 451.451 67.9303 452.176 68.0928L455.154 68.8087C456.602 69.1344 457.928 69.5683 459.138 70.1108C460.344 70.653 461.393 71.3203 462.276 72.1123C463.163 72.9044 463.847 73.8371 464.335 74.9112C464.829 75.9853 465.085 77.2165 465.096 78.6054C465.085 80.645 464.566 82.4131 463.539 83.9102C462.525 85.3967 461.059 86.5518 459.138 87.3763C457.226 88.1902 454.922 88.597 452.226 88.597C449.546 88.597 447.218 88.1846 445.229 87.3601C443.255 86.5356 441.712 85.3152 440.6 83.6987C439.499 82.0715 438.921 80.0591 438.868 77.6614H445.65C445.727 78.7788 446.047 79.7119 446.608 80.4602C447.179 81.198 447.94 81.7567 448.891 82.1364C449.848 82.5054 450.935 82.6898 452.141 82.6898C453.33 82.6898 454.361 82.5164 455.234 82.1692C456.122 81.8219 456.806 81.339 457.293 80.7207C457.777 80.1025 458.019 79.3918 458.019 78.5888C458.019 77.8405 457.798 77.2112 457.356 76.7012C456.925 76.1915 456.287 75.7575 455.445 75.3994C454.614 75.0416 453.593 74.7159 452.387 74.423L448.775 73.5118C445.98 72.8283 443.774 71.7598 442.154 70.3061C440.534 68.8524 439.731 66.8939 439.741 64.4314C439.731 62.4136 440.267 60.6504 441.344 59.1428C442.434 57.6348 443.928 56.4575 445.829 55.6115C447.73 54.7651 449.887 54.3421 452.306 54.3421C454.765 54.3421 456.914 54.7651 458.748 55.6115C460.593 56.4575 462.031 57.6348 463.055 59.1428C464.079 60.6504 464.608 62.3971 464.64 64.3827H457.924ZM486.112 97.4983V84.1217H485.902C485.579 84.8161 485.12 85.5049 484.527 86.1884C483.942 86.8613 483.181 87.42 482.244 87.8645C481.315 88.3094 480.182 88.5318 478.843 88.5318C476.956 88.5318 475.245 88.0436 473.712 87.0671C472.19 86.0801 470.98 84.6317 470.086 82.7222C469.199 80.8022 468.757 78.4478 468.757 75.6599C468.757 72.7958 469.216 70.4143 470.135 68.5158C471.05 66.6066 472.271 65.1801 473.793 64.2361C475.325 63.2815 477.001 62.8042 478.829 62.8042C480.221 62.8042 481.378 63.0429 482.307 63.5201C483.247 63.9865 484.001 64.5724 484.573 65.2777C485.158 65.9718 485.6 66.6553 485.902 67.3278H486.193V63.1296H492.993V97.4983H486.112ZM481.027 83.0152C482.139 83.0152 483.079 82.7117 483.847 82.1039C484.622 81.4857 485.218 80.6231 485.625 79.5166C486.049 78.4101 486.26 77.1136 486.26 75.6271C486.26 74.141 486.053 72.8501 485.642 71.7542C485.232 70.6586 484.639 69.8123 483.861 69.2158C483.086 68.6191 482.139 68.3205 481.027 68.3205C479.895 68.3205 478.941 68.63 478.162 69.2483C477.387 69.8666 476.798 70.7235 476.398 71.8194C475.999 72.915 475.799 74.1843 475.799 75.6271C475.799 77.0812 475.999 78.3667 476.398 79.4842C476.809 80.5907 477.398 81.4585 478.162 82.0877C478.941 82.706 479.895 83.0152 481.027 83.0152ZM514.476 77.4823V63.1296H521.374V88.125H514.753V83.5848H514.493C513.932 85.0494 512.996 86.2264 511.691 87.1161C510.397 88.0055 508.816 88.4504 506.946 88.4504C505.284 88.4504 503.822 88.0707 502.559 87.3114C501.297 86.5518 500.312 85.4724 499.6 84.073C498.895 82.6736 498.541 80.9974 498.53 79.0446V63.1296H505.425V77.808C505.439 79.2832 505.831 80.4497 506.606 81.3066C507.385 82.1635 508.426 82.5922 509.731 82.5922C510.562 82.5922 511.341 82.4022 512.063 82.0225C512.785 81.632 513.371 81.057 513.813 80.2977C514.265 79.5381 514.486 78.5997 514.476 77.4823ZM533.981 88.597C532.392 88.597 530.979 88.3203 529.737 87.7669C528.496 87.2029 527.514 86.3731 526.792 85.2772C526.08 84.1707 525.722 82.7927 525.722 81.1437C525.722 79.7552 525.978 78.5888 526.483 77.6452C526.992 76.7012 527.682 75.9419 528.556 75.367C529.432 74.792 530.425 74.3581 531.537 74.0652C532.659 73.7723 533.833 73.566 535.064 73.4465C536.509 73.295 537.677 73.1536 538.561 73.0235C539.448 72.8825 540.09 72.6763 540.489 72.4053C540.886 72.1338 541.086 71.7327 541.086 71.2011V71.1035C541.086 70.0728 540.763 69.2754 540.114 68.7111C539.48 68.1471 538.571 67.8651 537.396 67.8651C536.155 67.8651 535.166 68.1418 534.433 68.6948C533.7 69.2373 533.213 69.9208 532.978 70.7453L526.599 70.2247C526.921 68.7058 527.56 67.3931 528.507 66.2866C529.457 65.1691 530.684 64.3122 532.182 63.7154C533.693 63.1077 535.443 62.8042 537.428 62.8042C538.81 62.8042 540.132 62.9667 541.394 63.2924C542.667 63.6178 543.796 64.1222 544.778 64.8057C545.771 65.4892 546.553 66.368 547.124 67.4421C547.696 68.5052 547.984 69.7798 547.984 71.266V88.125H541.443V84.6589H541.25C540.851 85.44 540.314 86.1288 539.648 86.7256C538.978 87.3114 538.171 87.7725 537.235 88.1088C536.295 88.4341 535.212 88.597 533.981 88.597ZM535.955 83.8125C536.969 83.8125 537.866 83.6119 538.641 83.2104C539.42 82.7984 540.03 82.2449 540.472 81.5505C540.914 80.8564 541.135 80.0697 541.135 79.1912V76.5387C540.921 76.6797 540.623 76.8097 540.244 76.9292C539.879 77.0375 539.462 77.1407 538.999 77.2384C538.536 77.3251 538.07 77.4065 537.607 77.4823C537.144 77.5475 536.72 77.6071 536.344 77.6614C535.534 77.7809 534.826 77.9705 534.223 78.231C533.62 78.4912 533.15 78.844 532.813 79.2889C532.48 79.7228 532.312 80.265 532.312 80.916C532.312 81.86 532.652 82.5812 533.332 83.0804C534.023 83.5686 534.896 83.8125 535.955 83.8125ZM553.335 88.125V63.1296H560.019V67.4907H560.279C560.731 65.9394 561.492 64.7676 562.562 63.9756C563.631 63.1729 564.862 62.7714 566.254 62.7714C566.598 62.7714 566.97 62.7933 567.369 62.8366C567.769 62.88 568.12 62.9396 568.422 63.0157V69.1668C568.099 69.0692 567.65 68.9825 567.078 68.9063C566.507 68.8306 565.984 68.7925 565.507 68.7925C564.494 68.7925 563.589 69.0149 562.79 69.4598C562.001 69.8937 561.376 70.5014 560.91 71.2822C560.458 72.0633 560.23 72.964 560.23 73.9838V88.125H553.335ZM582.165 88.6132C579.605 88.6132 577.403 88.0926 575.558 87.0509C573.724 85.9987 572.311 84.5122 571.318 82.5922C570.322 80.6612 569.828 78.3773 569.828 75.7413C569.828 73.1702 570.322 70.9135 571.318 68.9716C572.311 67.0296 573.706 65.5164 575.509 64.4314C577.322 63.3464 579.451 62.8042 581.888 62.8042C583.529 62.8042 585.055 63.07 586.471 63.6016C587.895 64.1222 589.136 64.9086 590.192 65.9612C591.262 67.0134 592.093 68.3371 592.685 69.9318C593.282 71.5156 593.576 73.3708 593.576 75.497V77.4009H572.581V73.105H587.085C587.085 72.1067 586.868 71.2226 586.436 70.4524C586.005 69.6822 585.405 69.0801 584.641 68.6462C583.883 68.2013 583.007 67.9789 582 67.9789C580.955 67.9789 580.026 68.2228 579.216 68.7111C578.42 69.1887 577.792 69.8341 577.339 70.6477C576.887 71.4503 576.652 72.3457 576.642 73.3327V77.4175C576.642 78.654 576.87 79.7228 577.322 80.6231C577.788 81.5234 578.441 82.2178 579.282 82.706C580.124 83.1942 581.123 83.4385 582.277 83.4385C583.042 83.4385 583.743 83.3299 584.381 83.1128C585.019 82.896 585.563 82.5703 586.015 82.1364C586.471 81.7024 586.815 81.1709 587.053 80.5417L593.432 80.965C593.106 82.5054 592.443 83.8506 591.44 85.0004C590.448 86.1397 589.161 87.0294 587.586 87.6692C586.022 88.2984 584.213 88.6132 582.165 88.6132ZM638.011 66.4656H630.921C630.791 65.5435 630.528 64.7243 630.128 64.0084C629.728 63.2815 629.216 62.6632 628.589 62.1531C627.964 61.6434 627.242 61.2529 626.421 60.9814C625.611 60.7104 624.731 60.5747 623.781 60.5747C622.066 60.5747 620.572 61.0033 619.299 61.8602C618.022 62.7066 617.037 63.9431 616.336 65.5706C615.634 67.1869 615.284 69.1506 615.284 71.4613C615.284 73.8371 615.634 75.8333 616.336 77.4499C617.048 79.0665 618.04 80.2868 619.313 81.1113C620.586 81.9358 622.059 82.3482 623.735 82.3482C624.671 82.3482 625.541 82.2234 626.341 81.9739C627.151 81.7243 627.866 81.3609 628.494 80.8836C629.118 80.3954 629.637 79.8039 630.047 79.1098C630.468 78.4154 630.759 77.6233 630.921 76.734L638.011 76.7664C637.829 78.2959 637.37 79.7715 636.637 81.1927C635.914 82.6031 634.936 83.8668 633.705 84.9842C632.485 86.0907 631.029 86.9695 629.336 87.6206C627.652 88.2607 625.744 88.5808 623.619 88.5808C620.663 88.5808 618.019 87.9079 615.687 86.5627C613.365 85.2176 611.531 83.2704 610.185 80.7207C608.845 78.1715 608.175 75.085 608.175 71.4613C608.175 67.827 608.856 64.7352 610.216 62.1856C611.577 59.6363 613.421 57.6944 615.753 56.3598C618.082 55.0147 620.705 54.3421 623.619 54.3421C625.541 54.3421 627.323 54.6132 628.964 55.1557C630.615 55.6982 632.078 56.4902 633.351 57.5315C634.624 58.5622 635.658 59.8259 636.458 61.3234C637.268 62.8204 637.787 64.5343 638.011 66.4656ZM649.805 54.7979V88.125H642.911V54.7979H649.805ZM666.568 88.6132C664.05 88.6132 661.876 88.0764 660.041 87.0023C658.218 85.9173 656.808 84.4093 655.816 82.4783C654.823 80.5364 654.325 78.2853 654.325 75.7248C654.325 73.143 654.823 70.8863 655.816 68.9553C656.808 67.0134 658.218 65.5054 660.041 64.4314C661.876 63.3464 664.05 62.8042 666.568 62.8042C669.082 62.8042 671.249 63.3464 673.073 64.4314C674.911 65.5054 676.324 67.0134 677.316 68.9553C678.309 70.8863 678.807 73.143 678.807 75.7248C678.807 78.2853 678.309 80.5364 677.316 82.4783C676.324 84.4093 674.911 85.9173 673.073 87.0023C671.249 88.0764 669.082 88.6132 666.568 88.6132ZM666.599 83.2432C667.743 83.2432 668.696 82.9175 669.464 82.2668C670.229 81.6048 670.807 80.7045 671.197 79.5652C671.597 78.4263 671.796 77.1298 671.796 75.6761C671.796 74.2224 671.597 72.9259 671.197 71.787C670.807 70.6477 670.229 69.7474 669.464 69.0854C668.696 68.4238 667.743 68.0928 666.599 68.0928C665.442 68.0928 664.471 68.4238 663.685 69.0854C662.907 69.7474 662.317 70.6477 661.921 71.787C661.532 72.9259 661.336 74.2224 661.336 75.6761C661.336 77.1298 661.532 78.4263 661.921 79.5652C662.317 80.7045 662.907 81.6048 663.685 82.2668C664.471 82.9175 665.442 83.2432 666.599 83.2432ZM699.238 77.4823V63.1296H706.132V88.125H699.511V83.5848H699.252C698.69 85.0494 697.758 86.2264 696.453 87.1161C695.156 88.0055 693.574 88.4504 691.708 88.4504C690.046 88.4504 688.584 88.0707 687.321 87.3114C686.059 86.5518 685.07 85.4724 684.358 84.073C683.657 82.6736 683.299 80.9974 683.288 79.0446V63.1296H690.186V77.808C690.197 79.2832 690.59 80.4497 691.368 81.3066C692.147 82.1635 693.188 82.5922 694.493 82.5922C695.324 82.5922 696.102 82.4022 696.825 82.0225C697.547 81.632 698.129 81.057 698.571 80.2977C699.027 79.5381 699.248 78.5997 699.238 77.4823ZM720.812 88.5318C718.925 88.5318 717.214 88.0436 715.681 87.0671C714.159 86.0801 712.949 84.6317 712.055 82.7222C711.168 80.8022 710.726 78.4478 710.726 75.6599C710.726 72.7958 711.185 70.4143 712.104 68.5158C713.019 66.6066 714.24 65.1801 715.762 64.2361C717.294 63.2815 718.971 62.8042 720.798 62.8042C722.19 62.8042 723.347 63.0429 724.276 63.5201C725.216 63.9865 725.97 64.5724 726.542 65.2777C727.127 65.9718 727.569 66.6553 727.871 67.3278H728.081V54.7979H734.962V88.125H728.162V84.1217H727.871C727.548 84.8161 727.089 85.5049 726.496 86.1884C725.911 86.8613 725.15 87.42 724.213 87.8645C723.284 88.3094 722.151 88.5318 720.812 88.5318ZM722.996 83.0152C724.108 83.0152 725.048 82.7117 725.816 82.1039C726.591 81.4857 727.187 80.6231 727.597 79.5166C728.018 78.4101 728.229 77.1136 728.229 75.6271C728.229 74.141 728.022 72.8501 727.611 71.7542C727.201 70.6586 726.609 69.8123 725.83 69.2158C725.055 68.6191 724.108 68.3205 722.996 68.3205C721.864 68.3205 720.91 68.63 720.131 69.2483C719.356 69.8666 718.767 70.7235 718.367 71.8194C717.968 72.915 717.768 74.1843 717.768 75.6271C717.768 77.0812 717.968 78.3667 718.367 79.4842C718.778 80.5907 719.367 81.4585 720.131 82.0877C720.91 82.706 721.864 83.0152 722.996 83.0152Z" fill="white"/>
</g>
</svg>
